<svg id="Layer_1" data-name="Layer 1" xmlns="http://www.w3.org/2000/svg" xmlns:xlink="http://www.w3.org/1999/xlink" viewBox="0 0 216 216"><defs><style>.cls-1{fill:url(#linear-gradient);}.cls-2{fill:url(#linear-gradient-2);}.cls-3{fill:none;}.cls-4{fill:#010101;}.cls-5{fill:url(#linear-gradient-3);}.cls-6{fill:url(#linear-gradient-4);}.cls-7{fill:url(#linear-gradient-5);}</style><linearGradient id="linear-gradient" x1="67.22" y1="157.59" x2="194.56" y2="51.72" gradientUnits="userSpaceOnUse"><stop offset="0" stop-color="#37c1cd"/><stop offset="0.14" stop-color="#69d0d9"/><stop offset="0.28" stop-color="#96dfe5"/><stop offset="0.43" stop-color="#bceaee"/><stop offset="0.58" stop-color="#d9f3f6"/><stop offset="0.72" stop-color="#eefafb"/><stop offset="0.86" stop-color="#fbfefe"/><stop offset="1" stop-color="#fff"/></linearGradient><linearGradient id="linear-gradient-2" x1="77.99" y1="213.83" x2="60.32" y2="136.59" gradientTransform="translate(25.43 25.42) rotate(-10.74)" gradientUnits="userSpaceOnUse"><stop offset="0" stop-color="#e8e6d4"/><stop offset="0.31" stop-color="#af8966"/><stop offset="0.54" stop-color="#846549"/><stop offset="0.85" stop-color="#4f3824"/><stop offset="1" stop-color="#3a2716"/></linearGradient><linearGradient id="linear-gradient-3" x1="194.88" y1="85.18" x2="232.77" y2="142.03" gradientTransform="translate(-12.06 -20.22) rotate(9.59)" gradientUnits="userSpaceOnUse"><stop offset="0" stop-color="#e8e6d4"/><stop offset="0.31" stop-color="#af8966"/><stop offset="1" stop-color="#010101"/></linearGradient><linearGradient id="linear-gradient-4" x1="181.89" y1="104.09" x2="60.44" y2="87.53" gradientTransform="translate(-12.06 -20.22) rotate(9.59)" gradientUnits="userSpaceOnUse"><stop offset="0" stop-color="#e8e6d4"/><stop offset="0.39" stop-color="#af8966"/><stop offset="0.55" stop-color="#846549"/><stop offset="0.77" stop-color="#4f3824"/><stop offset="0.88" stop-color="#3a2716"/></linearGradient><linearGradient id="linear-gradient-5" x1="208.41" y1="82.09" x2="111.5" y2="147.19" gradientTransform="translate(-12.06 -20.22) rotate(9.59)" gradientUnits="userSpaceOnUse"><stop offset="0.06" stop-color="#e8e6d4"/><stop offset="0.13" stop-color="#e3ddc9"/><stop offset="0.26" stop-color="#d4c5ad"/><stop offset="0.43" stop-color="#bc9e7f"/><stop offset="0.52" stop-color="#af8966"/><stop offset="0.58" stop-color="#a17e5e"/><stop offset="0.69" stop-color="#7c6148"/><stop offset="0.85" stop-color="#413326"/><stop offset="1" stop-color="#010101"/></linearGradient></defs><title>Artboard 1</title><circle class="cls-1" cx="114.67" cy="118.14" r="91.93"/><path class="cls-2" d="M166.4,120.23s-62.23,17.52-59.19,45.89c3,27.77,26,16.64,36.11,36.06-42.93,16.21-119.16-11-120.88-81.75,0,0,7.58,38.17,31.2,35.29C76.12,153,96,110.72,149,109.66a.38.38,0,0,0,.17,0,20.6,20.6,0,0,0,2.32,0c.1,0-2.39,0-2.32,0,16.15-1,18.56-18.64,18.56-18.64C171.86,99.33,178.95,115.36,166.4,120.23Z"/><circle class="cls-3" cx="114.67" cy="114.7" r="91.85" transform="translate(-17.53 208.66) rotate(-80.41)"/><path class="cls-4" d="M114.72,209.94a95.23,95.23,0,1,1,93.85-79.37h0A95.38,95.38,0,0,1,114.72,209.94Zm-.09-183.72a88.53,88.53,0,1,0,14.79,1.25A88.62,88.62,0,0,0,114.63,26.21Z"/><path class="cls-4" d="M49.73,47.31s-.22-6,10.23-9.22,39-27.86,39-27.86,20.69-18.28,19.61,8.06-23.3,38.51-23.3,38.51S46.19,61.27,49.73,47.31Z"/><polygon class="cls-5" points="181.63 94.93 173.56 125.49 159.11 117.53 177.41 94.96 181.63 94.93"/><path class="cls-6" d="M69.77,37.31S125.23,37,131,67.86c0,0-1.57,4.42,29.56,17.83l16.32,8.44-1,6.25-2.63,10.36-10.17,19.61-87.72,6.2-47.34-6.29-4-30.87,12.71-45.1Z"/><path class="cls-4" d="M163.59,102.68a.32.32,0,0,1-.11.15Z"/><path class="cls-4" d="M175.92,100.39s5-7.54-.79-10-17.42-5.87-17.42-5.87-6.55.34,4,6.12S174.45,94,175.92,100.39Z"/><path class="cls-4" d="M70.81,81.78s24.77-18.43,40.85-6.37S90.17,73.57,70.81,81.78Z"/><circle class="cls-4" cx="151.62" cy="105.17" r="1.89" transform="translate(22.66 237.15) rotate(-80.41)"/><circle class="cls-4" cx="156.54" cy="98.74" r="1.89" transform="translate(33.1 236.64) rotate(-80.41)"/><circle class="cls-4" cx="160.93" cy="106.75" r="1.89" transform="translate(28.86 247.64) rotate(-80.41)"/><path class="cls-4" d="M175.13,90.34l.79,10a10.18,10.18,0,0,1,4.89-4.61C184.45,94.06,175.13,90.34,175.13,90.34Z"/><path class="cls-4" d="M35.34,80.11C7.43,74.56,54.46,18.54,54.46,18.54S78.74-11,76.93,18.06c-2,32.86-5.83,38.8-5.83,38.8S59.71,85,35.34,80.11Z"/><path class="cls-7" d="M156.54,136.56s-59.1-4.07-66.1,23.6c-6.85,27.08,17.91,21.22,20.67,42.94-46.74,4.82-102.86-51-84.29-115.25,0,0-6.15,38.42,17,43.93,22,5.25,55.34-27.49,105.43-10.06a.38.38,0,0,0,.16.05,20.6,20.6,0,0,0,2.18.8c.09,0-2.24-.83-2.18-.8,15.49,4.65,23.88-11,23.88-11C178.39,124.48,170,136.35,156.54,136.56Z"/><path class="cls-4" d="M46.1,80.14S29.86,83.29,26.17,94.91c0,0-4.93-16.9,3.24-37.43"/></svg>